# Blender 5.2.2 LTS
# www.blender.org
mtllib barco_mundau.mtl
o Cube
v 1.379570 0.444289 -5.037431
v 1.000000 -0.444289 -3.076872
v 1.379570 0.444289 5.037431
v 1.000000 -0.444289 3.076872
v -1.379570 0.444289 -5.037431
v -1.000000 -0.444289 -3.076872
v -1.379570 0.444289 5.037431
v -1.000000 -0.444289 3.076872
v 1.761236 0.444289 5.419096
v -1.761236 0.444289 5.419096
v 1.761236 0.444289 -5.419096
v -1.761236 0.444289 -5.419096
v 1.061201 -0.069967 3.874924
v -1.061201 -0.069967 3.874924
v 1.061201 -0.069967 -3.874924
v -1.061201 -0.069967 -3.874924
vn -0.8503 0.5264 -0.0000
vn -0.0000 -0.9350 0.3547
vn -0.7594 -0.6506 -0.0000
vn -0.0000 -1.0000 -0.0000
vn 0.7594 -0.6506 -0.0000
vn -0.0000 -0.9350 -0.3547
vn -0.0000 1.0000 -0.0000
vn 0.8503 0.5264 -0.0000
vn -0.0000 0.9145 -0.4046
vn -0.0000 0.9145 0.4046
vt 0.652088 0.741196
vt 0.652088 0.508804
vt 0.375000 0.750000
vt 0.625000 0.750000
vt 0.625000 1.000000
vt 0.375000 1.000000
vt 0.375000 0.000000
vt 0.625000 0.000000
vt 0.625000 0.250000
vt 0.375000 0.250000
vt 0.125000 0.500000
vt 0.375000 0.500000
vt 0.125000 0.750000
vt 0.625000 0.500000
vt 0.847912 0.741196
vt 0.875000 0.750000
vt 0.847912 0.508804
vt 0.875000 0.500000
s 0
usemtl Material
f 3/1/1 1/2/1 15/2/1 13/1/1
f 4/3/2 9/4/2 10/5/2 8/6/2
f 8/7/3 10/8/3 12/9/3 6/10/3
f 6/11/4 2/12/4 4/3/4 8/13/4
f 2/12/5 11/14/5 9/4/5 4/3/5
f 6/10/6 12/9/6 11/14/6 2/12/6
f 3/1/7 7/15/7 10/16/7 9/4/7
f 1/2/7 3/1/7 9/4/7 11/14/7
f 7/15/7 5/17/7 12/18/7 10/16/7
f 5/17/7 1/2/7 11/14/7 12/18/7
f 15/2/7 16/17/7 14/15/7 13/1/7
f 5/17/8 7/15/8 14/15/8 16/17/8
f 7/15/9 3/1/9 13/1/9 14/15/9
f 1/2/10 5/17/10 16/17/10 15/2/10
